<?xml version="1.0" encoding="UTF-8"?>
<!-- Generator: Adobe Illustrator 15.0.2, SVG Export Plug-In . SVG Version: 6.00 Build 0)  -->
<!DOCTYPE svg PUBLIC "-//W3C//DTD SVG 1.1//EN" "http://www.w3.org/Graphics/SVG/1.1/DTD/svg11.dtd">
<svg version="1.1" id="Layer_1" xmlns="http://www.w3.org/2000/svg" xmlns:xlink="http://www.w3.org/1999/xlink" x="0px" y="0px" width="532.625px" height="270.125px" viewBox="0 0 532.625 270.125" enable-background="new 0 0 532.625 270.125" xml:space="preserve">
<g>
	
		<linearGradient id="SVGID_1_" gradientUnits="userSpaceOnUse" x1="329.3955" y1="-37.02" x2="329.3955" y2="-305.2505" gradientTransform="matrix(1 0 0 -1 -63 -35.875)">
		<stop offset="0" style="stop-color:#A2EEFF"/>
		<stop offset="0.1887" style="stop-color:#97E4FF"/>
		<stop offset="0.5199" style="stop-color:#7AC8FF"/>
		<stop offset="0.9518" style="stop-color:#4B9BFF"/>
		<stop offset="1" style="stop-color:#4596FF"/>
	</linearGradient>
	
		<rect x="1.125" y="1.145" fill="url(#SVGID_1_)" stroke="#000000" stroke-width="2" stroke-miterlimit="10" width="530.542" height="268.23"/>
	
		<linearGradient id="SVGID_2_" gradientUnits="userSpaceOnUse" x1="329.3955" y1="-37.02" x2="329.3955" y2="-59.709" gradientTransform="matrix(1 0 0 -1 -63 -35.875)">
		<stop offset="0" style="stop-color:#E6E6E6"/>
		<stop offset="0.455" style="stop-color:#DBDBDB"/>
		<stop offset="1" style="stop-color:#C8C8C8"/>
	</linearGradient>
	
		<rect x="1.125" y="1.145" fill="url(#SVGID_2_)" stroke="#000000" stroke-width="2" stroke-miterlimit="10" width="530.542" height="22.689"/>
	<g>
		
			<linearGradient id="SVGID_3_" gradientUnits="userSpaceOnUse" x1="514.333" y1="-37.4248" x2="514.333" y2="-52.8208" gradientTransform="matrix(1 0 0 -1 -63 -35.875)">
			<stop offset="0" style="stop-color:#969696"/>
			<stop offset="0.3058" style="stop-color:#8B8B8B"/>
			<stop offset="0.8406" style="stop-color:#6E6E6E"/>
			<stop offset="1" style="stop-color:#646464"/>
		</linearGradient>
		<rect x="420.126" y="1.55" fill="url(#SVGID_3_)" stroke="#000000" stroke-miterlimit="10" width="62.416" height="15.396"/>
		
			<linearGradient id="SVGID_4_" gradientUnits="userSpaceOnUse" x1="561.1455" y1="-37.4248" x2="561.1455" y2="-52.8208" gradientTransform="matrix(1 0 0 -1 -63 -35.875)">
			<stop offset="0" style="stop-color:#FF9696"/>
			<stop offset="0.1301" style="stop-color:#FF8B8B"/>
			<stop offset="0.3585" style="stop-color:#FF6E6E"/>
			<stop offset="0.6583" style="stop-color:#FF3E3E"/>
			<stop offset="1" style="stop-color:#FF0000"/>
		</linearGradient>
		<rect x="482.542" y="1.55" fill="url(#SVGID_4_)" stroke="#000000" stroke-miterlimit="10" width="31.209" height="15.396"/>
		<line fill="none" stroke="#000000" stroke-miterlimit="10" x1="451.336" y1="1.145" x2="451.336" y2="17.351"/>
	</g>
</g>
<linearGradient id="SVGID_5_" gradientUnits="userSpaceOnUse" x1="29.4062" y1="232.6543" x2="56.5879" y2="232.6543" gradientTransform="matrix(1 0 0 -1 -21 273.625)">
	<stop offset="0" style="stop-color:#FF9696"/>
	<stop offset="0.1301" style="stop-color:#FF8B8B"/>
	<stop offset="0.3585" style="stop-color:#FF6E6E"/>
	<stop offset="0.6583" style="stop-color:#FF3E3E"/>
	<stop offset="1" style="stop-color:#FF0000"/>
</linearGradient>
<path fill="url(#SVGID_5_)" stroke="#000000" stroke-miterlimit="10" d="M22.752,51.432l12.836-13.04c0,0,0-8.392-6.186-7.859  c-6.185,0.534-6.65,8.558-6.65,8.558s1.299-8.558-7.549-8.558c-8.849,0-6.52,8.558-6.52,8.558L22.752,51.432z"/>
<linearGradient id="SVGID_6_" gradientUnits="userSpaceOnUse" x1="61.4062" y1="232.6543" x2="88.5879" y2="232.6543" gradientTransform="matrix(1 0 0 -1 -21 273.625)">
	<stop offset="0" style="stop-color:#FF9696"/>
	<stop offset="0.1301" style="stop-color:#FF8B8B"/>
	<stop offset="0.3585" style="stop-color:#FF6E6E"/>
	<stop offset="0.6583" style="stop-color:#FF3E3E"/>
	<stop offset="1" style="stop-color:#FF0000"/>
</linearGradient>
<path fill="url(#SVGID_6_)" stroke="#000000" stroke-miterlimit="10" d="M54.752,51.432l12.836-13.04c0,0,0-8.392-6.186-7.859  c-6.185,0.534-6.65,8.558-6.65,8.558s1.299-8.558-7.549-8.558c-8.849,0-6.52,8.558-6.52,8.558L54.752,51.432z"/>
<linearGradient id="SVGID_7_" gradientUnits="userSpaceOnUse" x1="93.4062" y1="232.6543" x2="120.5879" y2="232.6543" gradientTransform="matrix(1 0 0 -1 -21 273.625)">
	<stop offset="0" style="stop-color:#FF9696"/>
	<stop offset="0.1301" style="stop-color:#FF8B8B"/>
	<stop offset="0.3585" style="stop-color:#FF6E6E"/>
	<stop offset="0.6583" style="stop-color:#FF3E3E"/>
	<stop offset="1" style="stop-color:#FF0000"/>
</linearGradient>
<path fill="url(#SVGID_7_)" stroke="#000000" stroke-miterlimit="10" d="M86.752,51.432l12.836-13.04c0,0,0-8.392-6.186-7.859  c-6.185,0.534-6.65,8.558-6.65,8.558s1.299-8.558-7.549-8.558c-8.849,0-6.52,8.558-6.52,8.558L86.752,51.432z"/>
<rect x="113.625" y="149.375" fill="#4D4D4D" width="83" height="18"/>
<rect x="46.625" y="237.375" fill="#4D4D4D" width="217" height="31"/>
<rect x="279.625" y="102.375" fill="#4D4D4D" width="83" height="18"/>
<rect x="374.625" y="237.375" fill="#4D4D4D" width="156" height="31"/>
<linearGradient id="SVGID_8_" gradientUnits="userSpaceOnUse" x1="519.125" y1="72.75" x2="545.125" y2="72.75" gradientTransform="matrix(1 0 0 -1 -21 273.625)">
	<stop offset="0" style="stop-color:#E3E3E3"/>
	<stop offset="1" style="stop-color:#666666"/>
</linearGradient>
<rect x="498.125" y="191.875" fill="url(#SVGID_8_)" stroke="#4D4D4D" stroke-miterlimit="10" width="26" height="18"/>
<rect x="519.625" y="210.375" fill="#4D4D4D" width="4" height="27"/>
<g>
	
		<linearGradient id="SVGID_9_" gradientUnits="userSpaceOnUse" x1="114.3496" y1="112.2788" x2="114.3496" y2="119.7212" gradientTransform="matrix(1 0 0 -1 -21 273.625)">
		<stop offset="0" style="stop-color:#E3E3E3"/>
		<stop offset="1" style="stop-color:#666666"/>
	</linearGradient>
	<polygon fill="url(#SVGID_9_)" stroke="#000000" stroke-miterlimit="10" points="93.875,153.904 91.6,157.703 92.737,161.347    93.875,161.347 95.1,157.587  "/>
	<path stroke="#000000" stroke-miterlimit="10" d="M62.228,234.036c0,0-7.525,5.599,0.753,5.599s6.898-1.709,6.522-2.799   C69.127,235.745,63.859,234.081,62.228,234.036z"/>
	<path fill="#262626" stroke="#000000" stroke-miterlimit="10" d="M56.777,234.036c0,0-10.5,7.811,1.049,7.811   c11.55,0,9.625-2.386,9.1-3.906C66.401,236.422,59.052,234.1,56.777,234.036z"/>
	<path fill="#454545" stroke="#000000" stroke-miterlimit="10" d="M60.837,218.223l-1.588,15.813l8.37,1.511   C67.618,235.548,68.666,216.418,60.837,218.223z"/>
	<path fill="#666666" stroke="#000000" stroke-miterlimit="10" d="M53.274,215.949v22.397c0,0,4.988-3.85,8.139,0   c3.148,3.85,1.267-16.624,1.267-16.624S56.274,214.197,53.274,215.949z"/>
	<path fill="#EBEBEB" stroke="#000000" stroke-miterlimit="10" d="M65.351,185.675c0,0,4.511,0.526,5.23,4.024   c0,0,1.069,12.949,6.144,13.649c5.074,0.7-4.725,3.836-1.049,6.467c0,0-11.725-6.125-11.725-12.069L65.351,185.675z"/>
	<path fill="#F5F5F5" stroke="#000000" stroke-miterlimit="10" d="M66.314,186.861c0,0,6.562,17.188,3.413,40.111   c-3.15,22.923-10.675-18.2-15.05-7.7s-0.175-31.147,4.025-32.198C62.901,186.025,65.527,184.462,66.314,186.861z"/>
	<circle fill="#FFDED4" stroke="#000000" stroke-miterlimit="10" cx="62.026" cy="174.826" r="12.774"/>
	<path d="M49.252,174.826c0,0,24.157-2.375,23.541-6.875c-0.616-4.5-10.015-7.526-14.251-5.414   c-4.236,2.111-8.894,3.965-9.266,13.026"/>
	<ellipse cx="51.352" cy="164.235" rx="3.325" ry="3.214"/>
	<polygon fill="#FFFFFF" stroke="#000000" stroke-miterlimit="10" points="64.328,173.957 63.952,178.15 68.676,176.4  "/>
	<polygon fill="#FFFFFF" stroke="#000000" stroke-miterlimit="10" points="71.634,182.824 63.601,181.125 64.302,184.69  "/>
	<g>
		<polygon points="75.676,204.553 69.825,213.849 72.75,215.685 79.131,207.125   "/>
		
			<ellipse transform="matrix(0.5773 -0.8165 0.8165 0.5773 -134.0493 150.1297)" fill="#404040" cx="77.984" cy="204.542" rx="1.584" ry="5.856"/>
	</g>
	<ellipse fill="#FFDED4" stroke="#000000" stroke-miterlimit="10" cx="74.276" cy="209.912" rx="3.675" ry="3.937"/>
	<path fill="#FFFFFF" stroke="#000000" stroke-miterlimit="10" d="M47.94,198.712c0,0,9.843-22.494,15.618-9.718   c0,0-13.604,15.354-7.743,16.354h19.862c0,0-5.985,6.788-4.042,7.489C73.576,213.535,37.353,217.348,47.94,198.712z"/>
	
		<linearGradient id="SVGID_10_" gradientUnits="userSpaceOnUse" x1="106.9126" y1="67.6519" x2="106.9126" y2="116.2617" gradientTransform="matrix(1 0 0 -1 -21 273.625)">
		<stop offset="0" style="stop-color:#E3E3E3"/>
		<stop offset="1" style="stop-color:#666666"/>
	</linearGradient>
	<path fill="url(#SVGID_10_)" stroke="#000000" stroke-miterlimit="10" d="M76.726,203.349c0,0,2.1,2.274,3.149,2.625   c0,0,11.725-23.274,15.225-48.472l-1.75,2.273c0,0-1.75-0.35-1.75-2.273C91.6,155.576,91.075,173.951,76.726,203.349z"/>
</g>
</svg>