<?xml version="1.0" encoding="UTF-8"?>
<!-- Generator: Adobe Illustrator 15.0.2, SVG Export Plug-In . SVG Version: 6.00 Build 0)  -->
<!DOCTYPE svg PUBLIC "-//W3C//DTD SVG 1.1//EN" "http://www.w3.org/Graphics/SVG/1.1/DTD/svg11.dtd">
<svg version="1.1" id="Layer_1" xmlns="http://www.w3.org/2000/svg" xmlns:xlink="http://www.w3.org/1999/xlink" x="0px" y="0px" width="579.25px" height="252.25px" viewBox="0 0 579.25 252.25" enable-background="new 0 0 579.25 252.25" xml:space="preserve">
<g>
	<g>
		<path fill="#919191" d="M125.461,114.75l-1.735,5.029c0,0-8.678,0.586-10.317,0.008c-1.639-0.579-3.857-4.047-3.857-4.047    l-2.612,1.979c0,0,3.287,2.556,3.962,4.604c25.647-0.313,59.104,6.297,59.104,6.297s4.531-4.284,5.881-3.904    c1.35,0.38-1.736-2.124-1.736-2.124s-1.928,2.99-4.242,3.566c-2.314,0.577-14.27-1.929-14.27-1.929l0.29-4.627l-1.832-0.484    c0,0-0.29,1.832-0.29,3.567s-27.768-2.78-27.768-2.78l1.157-5.156H125.461z"/>
		<path fill="#BDBDBD" d="M115.894,112.75l-2.641,7.419c0,0-13.202,0.776-15.696-0.104c-2.494-0.88-5.868-6.213-5.868-6.213    l-3.974,2.98c0,0,5,3.874,6.027,6.991c39.021-0.477,89.923,9.575,89.923,9.575s6.895-6.522,8.948-5.944    c2.054,0.577-2.641-3.234-2.641-3.234s-2.934,4.547-6.455,5.425c-3.521,0.878-21.71-2.936-21.71-2.936l0.44-7.04l-2.787-0.736    c0,0-0.44,2.787-0.44,5.428s-42.248-3.997-42.248-3.997l1.76-7.614H115.894z"/>
		<path fill="#008400" d="M125.059,58.057c0,0-77.559-3.668-89.559-0.146v-2.201L21.86,34.732l-1.355,9.535l11.828,16.869    l-0.394,0.881l-0.857,0.22l-2.922,7.701l1.62,2.641l7.337-8.655c0,0,40.451-2.641,57.027,6.309L125.059,58.057z"/>
		<path fill="#00C300" d="M162.542,59.23c0,0,38.581,9.828,40.341,33.445c0,0,0.88,25.378-44.595,27.432    c0,0-59.411,3.374-70.559-35.06c0,0-2.054-28.751,45.181-28.751c0,0,6.895-11.36,13.496-24.938    C146.405,31.358,149.193,29.158,162.542,59.23z"/>
		<polygon fill="#707070" points="225.29,26.51 224.707,17.85 147.5,31.322 147.5,32.826   "/>
		<polygon fill="#707070" points="146.02,31.506 69.5,18.596 69.5,26.958 145.328,32.826   "/>
		<path fill="#8C8C8C" d="M143.68,36.818l7.337-0.513c0,0-0.378-3.627-3.668-8.028C147.349,28.277,144.622,29.367,143.68,36.818z"/>
		<polygon fill="#707070" points="43.574,34.732 49.148,37.96 35.652,60.11 34.039,62.457 25.384,86.222 19.37,82.994     31.985,62.018 34.259,58.937   "/>
		<circle fill="#8C8C8C" cx="34.479" cy="59.963" r="3.374"/>
		<path fill="#588800" d="M106.505,71.406c0,0-1.613,42.687,46.648,41.367C153.153,112.773,82.888,117.32,106.505,71.406z"/>
		<path d="M157.921,64.907c0,0-11.464,20.843-13.276,33.843h-14.816c0,0-0.88-22.861,14.816-36.798L157.921,64.907z"/>
		<path d="M150.366,99.131l45.475,0.88c0,0,18.483-12.028-28.898-33.3C166.942,66.711,152.566,78.153,150.366,99.131z"/>
	</g>
	<rect x="2.5" y="2.75" fill="none" stroke="#000000" stroke-width="2" stroke-miterlimit="10" width="228" height="131"/>
	<g>
		<g>
			<line fill="none" stroke="#808080" stroke-width="2" stroke-miterlimit="10" x1="9.5" y1="9.75" x2="9.5" y2="126.75"/>
			<g>
				<path fill="#808080" d="M9.541,125.824c2.09-2.09,6.223-3.086,9.09-3.168c-3.85,2.865-7.207,6.589-9.09,11.094      c-1.803-4.505-5.363-8.064-9.09-11.094C3.521,122.902,7.248,123.652,9.541,125.824z"/>
			</g>
		</g>
	</g>
	<g>
		<g>
			<line fill="none" stroke="#808080" stroke-width="2" stroke-miterlimit="10" x1="9.5" y1="9.75" x2="223.5" y2="9.75"/>
			<g>
				<path fill="#808080" d="M222.241,9.941c-2.09-2.09-3.086-6.223-3.168-9.09c2.865,3.85,6.589,7.207,11.094,9.09      c-4.505,1.803-8.064,5.363-11.094,9.09C219.319,15.961,220.069,12.234,222.241,9.941z"/>
			</g>
		</g>
	</g>
</g>
<g>
	
		<linearGradient id="SVGID_1_" gradientUnits="userSpaceOnUse" x1="434.75" y1="286.584" x2="434.75" y2="36.7656" gradientTransform="matrix(1 0 0 -1 -21 288)">
		<stop offset="0" style="stop-color:#A2EEFF"/>
		<stop offset="0.1887" style="stop-color:#97E4FF"/>
		<stop offset="0.5199" style="stop-color:#7AC8FF"/>
		<stop offset="0.9518" style="stop-color:#4B9BFF"/>
		<stop offset="1" style="stop-color:#4596FF"/>
	</linearGradient>
	
		<rect x="249.333" y="1.417" fill="url(#SVGID_1_)" stroke="#000000" stroke-width="2" stroke-miterlimit="10" width="328.834" height="249.817"/>
	
		<linearGradient id="SVGID_2_" gradientUnits="userSpaceOnUse" x1="434.75" y1="286.584" x2="434.75" y2="265.4512" gradientTransform="matrix(1 0 0 -1 -21 288)">
		<stop offset="0" style="stop-color:#E6E6E6"/>
		<stop offset="0.455" style="stop-color:#DBDBDB"/>
		<stop offset="1" style="stop-color:#C8C8C8"/>
	</linearGradient>
	
		<rect x="249.333" y="1.417" fill="url(#SVGID_2_)" stroke="#000000" stroke-width="2" stroke-miterlimit="10" width="328.834" height="21.132"/>
	<g>
		
			<linearGradient id="SVGID_3_" gradientUnits="userSpaceOnUse" x1="549.375" y1="286.2061" x2="549.375" y2="271.8662" gradientTransform="matrix(1 0 0 -1 -21 288)">
			<stop offset="0" style="stop-color:#969696"/>
			<stop offset="0.3058" style="stop-color:#8B8B8B"/>
			<stop offset="0.8406" style="stop-color:#6E6E6E"/>
			<stop offset="1" style="stop-color:#646464"/>
		</linearGradient>
		<rect x="509.033" y="1.794" fill="url(#SVGID_3_)" stroke="#000000" stroke-miterlimit="10" width="38.686" height="14.34"/>
		
			<linearGradient id="SVGID_4_" gradientUnits="userSpaceOnUse" x1="578.3896" y1="286.2061" x2="578.3896" y2="271.8662" gradientTransform="matrix(1 0 0 -1 -21 288)">
			<stop offset="0" style="stop-color:#FF9696"/>
			<stop offset="0.1301" style="stop-color:#FF8B8B"/>
			<stop offset="0.3585" style="stop-color:#FF6E6E"/>
			<stop offset="0.6583" style="stop-color:#FF3E3E"/>
			<stop offset="1" style="stop-color:#FF0000"/>
		</linearGradient>
		<rect x="547.719" y="1.794" fill="url(#SVGID_4_)" stroke="#000000" stroke-miterlimit="10" width="19.344" height="14.34"/>
		<line fill="none" stroke="#000000" stroke-miterlimit="10" x1="528.377" y1="1.417" x2="528.377" y2="16.511"/>
	</g>
</g>
<g>
	<g>
		<g>
			
				<line fill="none" stroke="#646464" stroke-width="3" stroke-miterlimit="10" x1="411.748" y1="126.152" x2="413.138" y2="126.959"/>
			<g>
				<path fill="#646464" d="M412.381,126.52c-0.882-3.215,0.327-7.856,1.737-10.743c0.699,5.383,2.46,10.748,5.722,15.077      c-5.175-0.676-10.372,0.907-15.157,2.945C406.509,130.89,409.148,127.604,412.381,126.52z"/>
			</g>
		</g>
	</g>
	<polygon fill="#646464" points="267.277,41.795 412.483,125.326 411.731,127.012 265.989,45.24  "/>
</g>
<g>
	<g>
		<line fill="none" stroke="#000000" stroke-width="4" stroke-miterlimit="10" x1="264.378" y1="42.173" x2="546.645" y2="42.173"/>
		<g>
			<path d="M545.676,41.795c-2.994-3.155-4.422-9.393-4.539-13.722c4.105,5.811,9.441,10.879,15.896,13.722     c-6.455,2.721-11.556,8.096-15.896,13.721C541.489,50.881,542.564,45.257,545.676,41.795z"/>
		</g>
	</g>
</g>
<g>
	<g>
		<line fill="none" stroke="#000000" stroke-width="4" stroke-miterlimit="10" x1="265.81" y1="41.417" x2="265.81" y2="218.78"/>
		<g>
			<path d="M265.989,217.228c2.995-3.155,8.916-4.659,13.025-4.782c-5.516,4.325-10.327,9.946-13.025,16.747     c-2.583-6.801-7.685-12.173-13.024-16.747C257.364,212.818,262.705,213.95,265.989,217.228z"/>
		</g>
	</g>
</g>
<text transform="matrix(0.9492 0 0 1 560.2568 48.9648)" font-family="'MyriadPro-Regular'" font-size="27.9251">x</text>
<text transform="matrix(0.9492 0 0 1 260.0781 242.9316)" font-family="'MyriadPro-Regular'" font-size="27.9251">y</text>
<text transform="matrix(0.9492 0 0 1 419.8389 137.2686)" fill="#646464" font-family="'MyriadPro-Regular'" font-size="24.1515">z</text>
<g opacity="0.61">
	<g>
		<line fill="none" stroke="#FF0000" stroke-width="5" stroke-miterlimit="10" x1="2.5" y1="2.75" x2="312.844" y2="119.867"/>
		<g>
			<path fill="#FF0000" d="M310.962,119.156c-3.044-6.732-1.726-17.278,0.613-24.057c3.304,11.533,9.05,22.673,17.925,31.053     c-12.128,0.24-23.597,5.426-33.972,11.469C298.814,130.657,303.858,122.603,310.962,119.156z"/>
		</g>
	</g>
</g>
</svg>