<svg xmlns="http://www.w3.org/2000/svg" viewBox="0 0 233.9 260.8" enable-background="new 0 0 233.9 260.8"><path d="M63.6 240.9c-2.6 0-4.5-1.9-4.5-4.8s1.9-4.8 4.5-4.8 4.5 1.9 4.5 4.8-2 4.8-4.5 4.8zm0-7.9c-1.6 0-2.7 1.2-2.7 3.2s1 3.2 2.7 3.2 2.7-1.2 2.7-3.2-1.1-3.2-2.7-3.2zM70.2 238.5c.1.8.7 1.2 1.5 1.2.6 0 1.1-.2 1.1-.7 0-.4-.3-.6-.9-.7l-1-.2c-1.3-.2-2-.7-2-1.9s1-2.1 2.6-2.1c1.7 0 2.7.8 2.8 2.2l-1.4.1c-.1-.7-.6-1.1-1.5-1.1-.6 0-1 .3-1 .7 0 .4.2.6.7.6l1.2.2c1.3.2 2.1.8 2.1 2 0 1.3-1.1 2-2.7 2s-2.8-.7-3-2.3h1.5zM77.1 231.5v9.2h-1.7v-9.2h1.7zM81.4 240.9c-1.9 0-3.2-1.4-3.2-3.4s1.3-3.4 3.2-3.4c1.9 0 3.3 1.4 3.3 3.4s-1.4 3.4-3.3 3.4zm0-1.3c1 0 1.6-.8 1.6-2.1 0-1.2-.5-2.1-1.6-2.1-1 0-1.6.8-1.6 2.1.1 1.2.6 2.1 1.6 2.1zM89.4 237.4c.1 1.4 1.1 2.1 2.3 2.1 1.1 0 1.8-.5 1.8-1.2s-.5-1-1.5-1.2l-1.7-.3c-1.4-.3-2.3-1.1-2.3-2.6 0-1.7 1.3-2.8 3.4-2.8 2.3 0 3.6 1.2 3.6 3.3l-1.6.1c-.1-1.3-.8-1.9-2-1.9-1 0-1.6.5-1.6 1.3 0 .7.5.9 1.3 1.1l1.6.3c1.7.3 2.6 1.2 2.6 2.7 0 1.8-1.5 2.8-3.5 2.8-2.3 0-3.9-1.2-3.9-3.4l1.5-.3zM99.3 234.1c1.8 0 2.8 1.3 3 2.8l-1.4.1c-.1-1-.6-1.6-1.6-1.6-.9 0-1.6.7-1.6 2.1 0 1.3.6 2 1.6 2 .9 0 1.4-.6 1.6-1.6l1.4.1c-.1 1.5-1.1 2.8-3 2.8s-3.3-1.3-3.3-3.4c.1-1.9 1.4-3.3 3.3-3.3zM105 240.7h-1.7v-9.2h1.7v3.8c.3-.7 1.1-1.2 2-1.2 1.7 0 2.3 1.2 2.3 2.6v4h-1.7V237c0-1-.4-1.6-1.2-1.6-.9 0-1.4.7-1.4 1.8v3.5zM113.5 240.9c-1.9 0-3.2-1.4-3.2-3.4s1.3-3.4 3.2-3.4c1.9 0 3.3 1.4 3.3 3.4s-1.3 3.4-3.3 3.4zm0-1.3c1 0 1.6-.8 1.6-2.1 0-1.2-.5-2.1-1.6-2.1-1 0-1.6.8-1.6 2.1.1 1.2.6 2.1 1.6 2.1zM120.8 240.9c-1.9 0-3.2-1.4-3.2-3.4s1.3-3.4 3.2-3.4c1.9 0 3.3 1.4 3.3 3.4s-1.4 3.4-3.3 3.4zm0-1.3c1 0 1.6-.8 1.6-2.1 0-1.2-.5-2.1-1.6-2.1-1 0-1.6.8-1.6 2.1 0 1.2.6 2.1 1.6 2.1zM126.8 231.5v9.2h-1.7v-9.2h1.7zM133.6 240.9c-1.9 0-3.2-1.4-3.2-3.4s1.3-3.4 3.2-3.4c1.9 0 3.3 1.4 3.3 3.4s-1.4 3.4-3.3 3.4zm0-1.3c1 0 1.6-.8 1.6-2.1 0-1.2-.5-2.1-1.6-2.1-1 0-1.6.8-1.6 2.1.1 1.2.6 2.1 1.6 2.1zM137.3 235.5v-1.2h.9v-.5c0-1.5.9-2.4 2.3-2.4 1.1 0 1.8.6 2.1 1.6l-1.1.4c-.1-.4-.4-.7-.8-.7-.5 0-.7.4-.7 1v.7h1.7v1.2H140v5.2h-1.7v-5.2h-1zM149.6 231.5l3.6 9.2h-1.9l-.9-2.3h-3.8l-.9 2.3h-1.8l3.6-9.2h2.1zm-2.4 5.5h2.7l-1.3-3.4h-.1l-1.3 3.4zM158.1 236c-.3-.2-.6-.3-1-.3-.9 0-1.5.6-1.5 1.8v3.2H154v-6.4h1.7v1.2c.2-.7.9-1.4 1.7-1.4.4 0 .7.1.9.3l-.2 1.6zM159.5 235.5h-.9v-1l.4-.1c.6-.1.8-.4.9-1l.2-.9h1v1.8h1.7v1.2h-1.7v3.2c0 .6.2.8.7.8.3 0 .7-.1 1.1-.3v1.2c-.4.4-1 .6-1.7.6-1 0-1.8-.4-1.8-1.8v-3.7zM164.9 238.5c.1.8.7 1.2 1.5 1.2.6 0 1.1-.2 1.1-.7 0-.4-.3-.6-.9-.7l-1-.2c-1.3-.2-2-.7-2-1.9s1-2.1 2.6-2.1c1.7 0 2.7.8 2.8 2.2l-1.4.1c-.1-.7-.6-1.1-1.5-1.1-.6 0-1 .3-1 .7 0 .4.2.6.7.6l1.2.2c1.3.2 2.1.8 2.1 2 0 1.3-1.1 2-2.7 2s-2.8-.7-3-2.3h1.5zM170 238.8h1.9v1.9c0 1.2-.5 1.9-1.9 1.9v-.9c.6 0 .8-.3.8-.9h-.8v-2zM28 248.9c2.6 0 4 1.7 4.2 4l-1.7.1c-.1-1.4-.9-2.5-2.5-2.5s-2.6 1.2-2.6 3.2c0 1.9 1 3.2 2.6 3.2s2.4-1.1 2.5-2.5l1.7.1c-.2 2.3-1.6 4-4.2 4-2.5 0-4.4-1.9-4.4-4.8-.1-2.9 1.9-4.8 4.4-4.8zM36.2 258.4c-1.9 0-3.2-1.4-3.2-3.4s1.3-3.4 3.2-3.4c1.9 0 3.3 1.4 3.3 3.4-.1 2-1.4 3.4-3.3 3.4zm0-1.3c1 0 1.6-.8 1.6-2.1 0-1.2-.5-2.1-1.6-2.1-1 0-1.6.8-1.6 2.1 0 1.2.5 2.1 1.6 2.1zM48.2 251.6c1.7 0 2.2 1.2 2.2 2.6v4h-1.7v-3.7c0-1-.3-1.6-1.1-1.6s-1.3.7-1.3 1.8v3.4h-1.7v-3.7c0-1-.3-1.6-1.1-1.6s-1.3.7-1.3 1.8v3.4h-1.7v-6.4h1.7v1.1c.3-.7 1-1.2 1.9-1.2 1.1 0 1.7.5 2 1.3.3-.6 1.1-1.2 2.1-1.2zM59.4 251.6c1.7 0 2.2 1.2 2.2 2.6v4h-1.7v-3.7c0-1-.3-1.6-1.1-1.6s-1.3.7-1.3 1.8v3.4h-1.7v-3.7c0-1-.3-1.6-1.1-1.6s-1.3.7-1.3 1.8v3.4h-1.7v-6.4h1.7v1.1c.3-.7 1-1.2 1.9-1.2 1.1 0 1.7.5 2 1.3.4-.6 1.1-1.2 2.1-1.2zM67.1 251.8h1.7v6.4h-1.7v-1.1c-.3.7-1.1 1.2-2 1.2-1.6 0-2.2-1.2-2.2-2.6v-4h1.7v3.7c0 1 .4 1.6 1.2 1.6.8 0 1.3-.7 1.3-1.8v-3.4zM71.8 258.2h-1.7v-6.4h1.7v1.1c.3-.7 1.1-1.2 2-1.2 1.7 0 2.3 1.2 2.3 2.6v4h-1.7v-3.7c0-1-.4-1.6-1.2-1.6-.9 0-1.4.7-1.4 1.8v3.4zM77.4 249h1.7v1.7h-1.7V249zm1.7 2.8v6.4h-1.7v-6.4h1.7zM83.5 251.6c1.8 0 2.8 1.3 3 2.8l-1.4.1c-.1-1-.6-1.6-1.6-1.6-.9 0-1.6.7-1.6 2.1 0 1.3.6 2 1.6 2 .9 0 1.4-.6 1.6-1.6l1.4.1c-.1 1.5-1.1 2.8-3 2.8s-3.3-1.3-3.3-3.4c0-1.9 1.4-3.3 3.3-3.3zM92.8 256.7c0 .3.2.5.4.5s.3 0 .5-.1v.9c-.3.2-.6.4-1.2.4-.7 0-1.1-.4-1.3-1.1-.3.7-1.2 1.1-2.1 1.1-1.3 0-2.1-.7-2.1-1.8 0-1.2 1-1.7 2.4-2l1.7-.4v-.1c0-.7-.4-1.2-1.1-1.2-.7 0-1.1.4-1.2 1.1l-1.5-.1c.2-1.3 1.2-2.2 2.8-2.2 1.6 0 2.6.8 2.6 2.5v2.5zm-1.6-1.4l-1.2.3c-.7.2-1.2.3-1.2.9 0 .4.3.7.9.7.9 0 1.6-.7 1.6-1.7v-.2zM94.7 253h-.9v-1l.4-.1c.6-.1.8-.4.9-1l.2-.9h1v1.8H98v1.2h-1.7v3.2c0 .6.2.8.7.8.3 0 .7-.1 1.1-.3v1.2c-.4.4-1 .6-1.7.6-1 0-1.8-.4-1.8-1.8V253zM99.1 249h1.7v1.7h-1.7V249zm1.7 2.8v6.4h-1.7v-6.4h1.7zM105.1 258.4c-1.9 0-3.2-1.4-3.2-3.4s1.3-3.4 3.2-3.4c1.9 0 3.3 1.4 3.3 3.4s-1.4 3.4-3.3 3.4zm0-1.3c1 0 1.6-.8 1.6-2.1 0-1.2-.5-2.1-1.6-2.1-1 0-1.6.8-1.6 2.1.1 1.2.6 2.1 1.6 2.1zM111.1 258.2h-1.7v-6.4h1.7v1.1c.3-.7 1.1-1.2 2-1.2 1.7 0 2.3 1.2 2.3 2.6v4h-1.7v-3.7c0-1-.4-1.6-1.2-1.6-.9 0-1.4.7-1.4 1.8v3.4zM124.6 256.7c0 .3.2.5.4.5s.3 0 .5-.1v.9c-.3.2-.6.4-1.2.4-.7 0-1.1-.4-1.3-1.1-.3.7-1.2 1.1-2.1 1.1-1.3 0-2.1-.7-2.1-1.8 0-1.2 1-1.7 2.4-2l1.7-.4v-.1c0-.7-.4-1.2-1.1-1.2-.7 0-1.1.4-1.2 1.1l-1.5-.1c.2-1.3 1.2-2.2 2.8-2.2 1.6 0 2.6.8 2.6 2.5v2.5zm-1.6-1.4l-1.2.3c-.7.2-1.2.3-1.2.9 0 .4.3.7.9.7.9 0 1.6-.7 1.6-1.7v-.2zM128 258.2h-1.7v-6.4h1.7v1.1c.3-.7 1.1-1.2 2-1.2 1.7 0 2.3 1.2 2.3 2.6v4h-1.7v-3.7c0-1-.4-1.6-1.2-1.6-.9 0-1.4.7-1.4 1.8v3.4zM138.2 257c-.3.8-1 1.4-2.1 1.4-1.8 0-2.8-1.5-2.8-3.4s1-3.4 2.8-3.4c1.1 0 1.9.6 2.1 1.4v-4h1.7v9.2h-1.7V257zm0-2.1c0-1.2-.7-1.9-1.6-1.9-1.1 0-1.6.8-1.6 2s.5 2 1.6 2c1 0 1.6-.7 1.6-1.9v-.2zM146.5 258.2v-7.7h-3.1V249h8v1.5h-3.2v7.7h-1.7zM157.1 256.1c-.3 1.4-1.4 2.3-3 2.3-1.9 0-3.3-1.3-3.3-3.3 0-2 1.4-3.5 3.2-3.5 2 0 3.1 1.5 3.1 3.2v.6h-4.6c.1.9.8 1.6 1.7 1.6.8 0 1.3-.4 1.6-1.1l1.3.2zm-1.6-1.7c-.1-.7-.5-1.5-1.4-1.5-.9 0-1.4.7-1.5 1.5h2.9zM161.1 251.6c1.8 0 2.8 1.3 3 2.8l-1.4.1c-.1-1-.6-1.6-1.6-1.6-.9 0-1.6.7-1.6 2.1 0 1.3.6 2 1.6 2 .9 0 1.4-.6 1.6-1.6l1.4.1c-.1 1.5-1.1 2.8-3 2.8s-3.3-1.3-3.3-3.4c.1-1.9 1.4-3.3 3.3-3.3zM166.8 258.2h-1.7V249h1.7v3.8c.3-.7 1.1-1.2 2-1.2 1.7 0 2.3 1.2 2.3 2.6v4h-1.7v-3.7c0-1-.4-1.6-1.2-1.6-.9 0-1.4.7-1.4 1.8v3.5zM174.1 258.2h-1.7v-6.4h1.7v1.1c.3-.7 1.1-1.2 2-1.2 1.7 0 2.3 1.2 2.3 2.6v4h-1.7v-3.7c0-1-.4-1.6-1.2-1.6-.9 0-1.4.7-1.4 1.8v3.4zM182.6 258.4c-1.9 0-3.2-1.4-3.2-3.4s1.3-3.4 3.2-3.4c1.9 0 3.3 1.4 3.3 3.4s-1.3 3.4-3.3 3.4zm0-1.3c1 0 1.6-.8 1.6-2.1 0-1.2-.5-2.1-1.6-2.1-1 0-1.6.8-1.6 2.1.1 1.2.6 2.1 1.6 2.1zM188.6 249v9.2H187V249h1.6zM192.9 258.4c-1.9 0-3.2-1.4-3.2-3.4s1.3-3.4 3.2-3.4c1.9 0 3.3 1.4 3.3 3.4s-1.3 3.4-3.3 3.4zm0-1.3c1 0 1.6-.8 1.6-2.1 0-1.2-.5-2.1-1.6-2.1-1 0-1.6.8-1.6 2.1.1 1.2.6 2.1 1.6 2.1zM199.9 256c-.5 0-1-.1-1.4-.2-.2.1-.3.3-.3.5 0 .3.2.5.6.5h2.5c1.4 0 2.1.8 2.1 1.8 0 1.6-1.8 2.3-3.7 2.3-1.7 0-3.2-.5-3.2-1.6 0-.7.5-1.1 1.2-1.2-.6-.2-.9-.7-.9-1.2 0-.6.4-1 1-1.3-.5-.4-.9-.9-.9-1.6 0-1.4 1.2-2.2 2.8-2.2.8 0 1.5.2 2 .6.4-.5 1-.9 1.6-.9v1.4c-.3 0-.7.1-1.1.2.2.3.3.6.3 1 .2 1.1-1 1.9-2.6 1.9zm-.1 3.7c1.2 0 2.1-.3 2.1-.9 0-.4-.3-.6-.9-.6h-2.1c-.4 0-.8.2-.8.7 0 .6.7.8 1.7.8zm.1-7c-.6 0-1.1.4-1.1 1.1 0 .7.4 1.1 1.1 1.1.6 0 1.1-.4 1.1-1.1 0-.7-.4-1.1-1.1-1.1zM205.2 260.6l1-2.4-2.6-6.5h1.8l1.7 4.4h.1l1.7-4.4h1.6l-3.5 8.8h-1.8zM31.7 190l6.1-25.6h6.4l-8.6 34.8H28l-5.9-23.6-6 23.6H8.6L0 164.4h6.6l6.2 25.6 6.5-25.6h5.9l6.5 25.6zM73.4 190.9c.4 2.9 2.5 4.4 5.7 4.4 2.3 0 4.2-.8 4.2-2.6 0-1.7-1.1-2.4-3.4-2.8l-3.7-.7c-5-.8-7.7-2.8-7.7-7.3 0-4.6 3.8-7.8 9.7-7.8 6.5 0 10.3 3 10.8 8.5l-5.3.2c-.4-2.8-2.2-4.1-5.6-4.1-2.3 0-3.8 1-3.8 2.7 0 1.3.8 2.1 2.5 2.4l4.5.8c4.9.8 7.9 3 7.9 7.6 0 5-4.1 7.7-10.2 7.7s-10.8-2.8-11.2-8.7l5.6-.3zM209.4 164.4v34.8H203v-34.8h6.4zM199.4 195.2c-1 0-1.6-.6-1.6-1.9v-9.7c0-6.4-4-9.4-10-9.4-6.2 0-9.9 3.5-10.7 8.5l5.8.6c.5-2.4 2-4 4.6-4 2.7 0 4.1 1.7 4.1 4.4v.8l-6.4 1.1c-5.3 1.1-8.9 3-8.9 7.7 0 4.2 3 6.7 7.9 6.7 3.4 0 7.2-1.8 8-3.5.4 1.8 2.3 3.4 4.9 3.4 1.4 0 2.4-.2 3.2-.6v-4.1c-.4-.1-.7 0-.9 0zm-7.9-6.5c0 3.9-2.5 6.6-5.9 6.6-2 0-3.2-1-3.2-2.7 0-2.4 2-2.9 4.7-3.5l4.4-.8v.4zM102.8 194.6c-1.9 0-2.8-.9-2.8-3v-12h5.1V175H100v-6.7h-4.4s-.1 2.1-.4 3.3c-.3 1.2-1 3.5-3.3 3.9l-1.6.3v3.9h3.3V193c0 5.2 3 6.8 6.6 6.8 2 0 3.5-.4 4.8-1v-4.7c-.8.3-1.5.5-2.2.5zM146.1 174.3c-3.2 0-5.6 2.2-6.5 4.4v-3.9h-6.4v24.4h6.4v-12c0-4.4 2.2-6.8 5.5-6.8 1 0 1.9.2 2.7.5l1.3-5.7c-.7-.6-1.7-.9-3-.9zM54.5 194.8c-3.4 0-6.2-2.5-6.4-6.1h17.6v-2.4c0-6.6-3.9-12.2-11.6-12.2-7 0-12.3 5.5-12.3 13.2 0 7.7 5.2 12.5 12.4 12.5 5.7 0 9.6-2.9 11-7.7l-5.1-1c-.9 2.5-2.7 3.7-5.6 3.7zM54 179c3.6 0 5.2 2.7 5.4 5.5H48.2c.6-3 2.3-5.5 5.8-5.5zM118.9 194.8c-3.4 0-6.2-2.5-6.4-6.1h17.6v-2.4c0-6.6-3.9-12.2-11.6-12.2-7 0-12.3 5.5-12.3 13.2 0 7.7 5.2 12.5 12.4 12.5 5.7 0 9.6-2.9 11-7.7l-5.1-1c-.8 2.5-2.6 3.7-5.6 3.7zm-.4-15.8c3.6 0 5.2 2.7 5.4 5.5h-11.2c.6-3 2.3-5.5 5.8-5.5zM218 190.9c.4 2.9 2.5 4.4 5.7 4.4 2.3 0 4.2-.8 4.2-2.6 0-1.7-1.1-2.4-3.4-2.8l-3.7-.7c-5-.8-7.7-2.8-7.7-7.3 0-4.6 3.8-7.8 9.7-7.8 6.5 0 10.3 3 10.8 8.5l-5.3.2c-.4-2.8-2.2-4.1-5.6-4.1-2.3 0-3.8 1-3.8 2.7 0 1.3.8 2.1 2.5 2.4l4.5.8c4.9.8 7.9 3 7.9 7.6 0 5-4.1 7.7-10.2 7.7s-10.8-2.8-11.2-8.7l5.6-.3zM173.2 164.4h-6.1v12.9c-1.8-2-4.2-3.2-7.4-3.2-7 0-10.6 5.7-10.6 12.9s3.6 12.8 10.6 12.8c3.2 0 5.6-1.1 7.4-3v2.3h6.4v-34.8h-.3zm-11.6 30.3c-4 0-6-3-6-7.6s2.1-7.7 6.1-7.7c3.6 0 6.2 2.8 6.2 7.2v.9c-.1 4.5-2.7 7.2-6.3 7.2zM152.4 128.4v-9.2h-3.8v-2.4h10.3v2.4h-3.8v9.2zM117 126.1c-1.7 0-2.8-1.4-2.8-3.5s1.1-3.5 2.8-3.5c1.1 0 1.9.5 2.4 1.4l2.5-.9c-.8-2-2.5-3.1-4.9-3.1-3.3 0-5.6 2.5-5.6 6s2.4 6 5.6 6c2.3 0 4-1.1 4.8-2.9l-2.5-.9c-.5.9-1.3 1.4-2.3 1.4zM171.2 56.4c-10.1 0-13.1 9-15.8 16.9-2.5 7.5-4.5 12.4-9.2 13.5 0-.6 0-1.2.1-1.8.4-11.8 1.1-18.9 7.6-18.9 1.3 0 2.3-1 2.3-2.3 0-1.3-1-2.3-2.3-2.3-11.5 0-11.9 12.4-12.2 23.4 0 .6 0 1.2-.1 1.8-4.5-1.2-6.5-6.1-8.9-13.4-2.6-7.9-5.6-16.9-15.8-16.9-10.1 0-13.1 9-15.8 16.9-2.4 7.3-4.4 12.2-8.9 13.4 0-.6 0-1.2-.1-1.8-.3-11-.7-23.4-12.2-23.4-1.3 0-2.3 1-2.3 2.3 0 1.3 1 2.3 2.3 2.3 6.5 0 7.2 7.2 7.6 18.9 0 .6 0 1.2.1 1.8-4.7-1.1-6.7-6-9.2-13.5-2.6-7.9-5.6-16.9-15.8-16.9-1.3 0-2.3 1-2.3 2.3 0 1.3 1 2.3 2.3 2.3 6.3 0 8.5 5.2 11.4 13.7 2.5 7.4 5.2 15.7 13.9 16.8.6 7.9 2.3 15.2 9.5 16.7.8.2 1.6.2 2.3.2 1.9 0 3.5-.5 4.9-1.5 4.1-2.9 5.1-9.4 6-15.5 1.3-8 2.3-13.1 6.3-13.1s5.1 5.1 6.3 13.1c1 6.1 1.9 12.5 6 15.4 2 1.4 4.4 1.8 7.2 1.3 7.1-1.5 8.9-8.7 9.4-16.7 8.6-1.1 11.4-9.4 13.8-16.8 2.8-8.5 5-13.7 11.4-13.7 1.3 0 2.3-1 2.3-2.3.2-1.2-.8-2.2-2.1-2.2zm-35.6 47.2c-1.6.3-2.7.1-3.7-.5-2.8-1.8-3.3-7.1-4.1-12.2v.1c-1.2-7.5-2.6-16.6-10.9-16.6S107.2 83.6 106 91c-.8 5.2-1.3 10.3-4.1 12.2-.9.6-2.1.8-3.6.5-4-.8-5.2-5.3-5.7-12.3 8-1.5 10.6-9.5 13-16.6 2.8-8.5 5-13.7 11.4-13.7s8.5 5.2 11.4 13.7c2.4 7.1 5.1 15.1 13 16.6-.6 6.9-1.8 11.4-5.8 12.2zM156.2 92.3c-1.1-.7-2.5-.4-3.2.7l-17.5 27-16.6-20.1-1.1-1.3c-.2-.2-.5-.4-.9-.4-.3 0-.7.2-.9.4l-.8.9-17 20.5-17.3-27c-.7-1.1-2.1-1.4-3.2-.7s-1.4 2.1-.7 3.2l18.3 28.3-3.2 3.9-.5.7c-.9 1.2-1.3 2.7-1.3 4.2 0 2 .8 3.8 2.2 5.2 1.4 1.4 3.3 2.2 5.3 2.2 4.1 0 7.4-3.3 7.4-7.4 0-1.4-.4-2.8-1.2-4l-2.9-4.5 16-19.3 16 19.3-2.9 4.5c-.8 1.2-1.2 2.6-1.2 4 0 4.1 3.3 7.4 7.4 7.4 2 0 3.9-.8 5.3-2.2 1.4-1.4 2.2-3.3 2.2-5.2 0-1.5-.5-3-1.3-4.2l-3.7-4.6 18.3-28.3c.4-1.1.1-2.5-1-3.2zm-58.6 43.1c-.8 0-1.5-.3-2-.8s-.8-1.2-.8-2c0-.6.2-1.1.5-1.6l.3-.5 2.3-2.7 2.1 3.3c.3.5.4 1 .4 1.5.1 1.5-1.2 2.8-2.8 2.8zm41.5-2.8c0 .7-.3 1.4-.8 2-.5.5-1.2.8-2 .8-1.6 0-2.8-1.3-2.8-2.8 0-.5.2-1.1.4-1.5l2.1-3.3 2.3 2.7.3.5c.3.5.5 1 .5 1.6zM118.5 35.1l19.3 27.4L160 27.4c.7-1.1 2.1-1.4 3.2-.7s1.4 2.1.7 3.2l-24.3 38.3-.7 1.2c-.2.3-.5.5-.9.5s-.7-.2-.9-.5l-.8-1.2L117 40.7 97.2 68.9l-.4.6c-.2.3-.5.5-.9.5s-.7-.2-.9-.5l-.4-.6-24.7-39c-.7-1.1-.4-2.5.7-3.2 1.1-.7 2.5-.4 3.2.7L96 62.5l19.2-27.3.7-1c.2-.3.5-.5.9-.5s.7.2.9.5l.8.9zM118.2 1.3L137.4 44l9.6-30.2c.4-1.2 1.7-1.9 2.9-1.5 1.2.4 1.9 1.7 1.5 2.9l-12.2 38.5-.1.4c-.1.5-.6.8-1.1.8-.4 0-.8-.3-1-.6l-.2-.4-19.9-44.2-19.6 43.8-.4.9c-.2.4-.6.6-1 .6-.5 0-.9-.3-1.1-.8l-.2-.8-12.1-38.1c-.4-1.2.3-2.5 1.5-2.9 1.2-.4 2.5.3 2.9 1.5l9.5 30.2 19.2-42.8.3-.6c.2-.4.6-.7 1-.7.5 0 .9.3 1 .7l.3.6zM80.4 116.8h-2.6l-4.5 11.7h2.8l.8-2.1h4.5l.8 2.1H85l-4.6-11.7zm-2.7 7.3l1.4-3.7 1.4 3.7h-2.8z"/></svg>