<?xml version="1.0" encoding="UTF-8"?>
<!-- Generator: Adobe Illustrator 15.0.2, SVG Export Plug-In . SVG Version: 6.00 Build 0)  -->
<!DOCTYPE svg PUBLIC "-//W3C//DTD SVG 1.1//EN" "http://www.w3.org/Graphics/SVG/1.1/DTD/svg11.dtd">
<svg version="1.1" id="Layer_1" xmlns="http://www.w3.org/2000/svg" xmlns:xlink="http://www.w3.org/1999/xlink" x="0px" y="0px" width="607.377px" height="505.737px" viewBox="0 0 607.377 505.737" enable-background="new 0 0 607.377 505.737" xml:space="preserve">
<path fill="#EDEDED" stroke="#000000" stroke-miterlimit="10" d="M282.939,58.806c0,0-73.843-108.171-154.266-7.309  c0,0-102.357-22.994-103.819,52.821c0,0-38.75,40.001-2.925,78.007c0,0-36.556,49.701,10.236,79.667c0,0-34.363,38.007,4.387,76.744  c0,0-49.453,94.283,56.062,106.709c0,0,12.663,51.162,80.657,29.235c0,0,79.691,76.013,144.03-29.967  c0,0,16.626,86.976,122.733,40.93c0,0,142.663,40.901,130.965-86.625c0,0,86.272-118.754-27.782-191.843  c0,0,46.06-79.667,26.32-112.557c-19.74-32.89-93.584-53.355-126.484-31.428C443.054,63.191,363.362,2.527,282.939,58.806z"/>
<path fill="none" stroke="#000000" stroke-miterlimit="10" d="M543.218,207.176c0,0-12.07,14.956-21.906,17.415"/>
<path fill="none" stroke="#000000" stroke-miterlimit="10" d="M571,399.019c0,0-10.344,14.096-15.262,10.817"/>
<path fill="none" stroke="#000000" stroke-miterlimit="10" d="M440.035,485.644c0,0-16.264-9.414-15.444-16.791"/>
<line fill="none" stroke="#000000" stroke-miterlimit="10" x1="317.302" y1="444.714" x2="317.213" y2="427.049"/>
<path fill="none" stroke="#000000" stroke-miterlimit="10" d="M173.271,474.681c0,0-13.435-13.206-10.976-18.943"/>
<path fill="none" stroke="#000000" stroke-miterlimit="10" d="M92.614,445.445c0,0-6.549-5.281-5.729-15.117"/>
<path fill="none" stroke="#000000" stroke-miterlimit="10" d="M36.552,338.736c0,0,6.891-11.688,16.727-17.425"/>
<path fill="none" stroke="#000000" stroke-miterlimit="10" d="M24.854,104.318c0,0-3.575,24.37,6.293,24.37"/>
<path fill="none" stroke="#000000" stroke-miterlimit="10" d="M21.93,182.326c0,0,2.105,6.199,6.071-1.178"/>
<g>
	<linearGradient id="SVGID_1_" gradientUnits="userSpaceOnUse" x1="270.5161" y1="52.459" x2="270.5161" y2="383.4595">
		<stop offset="0" style="stop-color:#A2EEFF"/>
		<stop offset="0.1887" style="stop-color:#97E4FF"/>
		<stop offset="0.5199" style="stop-color:#7AC8FF"/>
		<stop offset="0.9518" style="stop-color:#4B9BFF"/>
		<stop offset="1" style="stop-color:#4596FF"/>
	</linearGradient>
	
		<rect x="41.017" y="52.459" fill="url(#SVGID_1_)" stroke="#000000" stroke-width="2" stroke-miterlimit="10" width="459" height="331"/>
	<linearGradient id="SVGID_2_" gradientUnits="userSpaceOnUse" x1="270.5161" y1="52.459" x2="270.5161" y2="80.459">
		<stop offset="0" style="stop-color:#E6E6E6"/>
		<stop offset="0.455" style="stop-color:#DBDBDB"/>
		<stop offset="1" style="stop-color:#C8C8C8"/>
	</linearGradient>
	
		<rect x="41.017" y="52.459" fill="url(#SVGID_2_)" stroke="#000000" stroke-width="2" stroke-miterlimit="10" width="459" height="28"/>
	<g>
		<linearGradient id="SVGID_3_" gradientUnits="userSpaceOnUse" x1="430.5166" y1="52.959" x2="430.5166" y2="71.959">
			<stop offset="0" style="stop-color:#969696"/>
			<stop offset="0.3058" style="stop-color:#8B8B8B"/>
			<stop offset="0.8406" style="stop-color:#6E6E6E"/>
			<stop offset="1" style="stop-color:#646464"/>
		</linearGradient>
		<rect x="403.517" y="52.959" fill="url(#SVGID_3_)" stroke="#000000" stroke-miterlimit="10" width="54" height="19"/>
		<linearGradient id="SVGID_4_" gradientUnits="userSpaceOnUse" x1="471.0166" y1="52.959" x2="471.0166" y2="71.959">
			<stop offset="0" style="stop-color:#FF9696"/>
			<stop offset="0.1301" style="stop-color:#FF8B8B"/>
			<stop offset="0.3585" style="stop-color:#FF6E6E"/>
			<stop offset="0.6583" style="stop-color:#FF3E3E"/>
			<stop offset="1" style="stop-color:#FF0000"/>
		</linearGradient>
		<rect x="457.517" y="52.959" fill="url(#SVGID_4_)" stroke="#000000" stroke-miterlimit="10" width="27" height="19"/>
		<line fill="none" stroke="#000000" stroke-miterlimit="10" x1="430.517" y1="52.459" x2="430.517" y2="72.459"/>
	</g>
</g>
<text transform="matrix(1 0 0 1 108.1973 233.606)" fill="#FFFFFF" font-family="'Tahoma'" font-size="25">From the gamer’s perspective</text>
<text transform="matrix(1 0 0 1 206.2715 417.3105)" font-family="'Tahoma'" font-size="23">What happens under the hood?</text>
</svg>